<svg version="1.1" id="Layer_1" xmlns="http://www.w3.org/2000/svg" xmlns:xlink="http://www.w3.org/1999/xlink" x="0px" y="0px" viewBox="0 0 500 500" style="width: 151px;" xml:space="preserve" data-imageid="data-maintenance-53" imageName="Data Maintenance" class="illustrations_image">
<style type="text/css">
	.st0_data-maintenance-53{fill:#D1D3D4;}
	.st1_data-maintenance-53{fill:#FFFFFF;}
	.st2_data-maintenance-53{fill:#231F20;}
	.st3_data-maintenance-53{fill:#68E1FD;}
</style>
<path id="Floor_data-maintenance-53" class="st0_data-maintenance-53" d="M449.5,380H50.5c-0.4,0-0.7-0.3-0.7-0.7c0-0.4,0.3-0.7,0.7-0.7h399.1c0.4,0,0.7,0.3,0.7,0.7&#10;&#9;C450.2,379.7,449.9,380,449.5,380z"/>
<g id="Tangled_Cables_data-maintenance-53">
	<path class="st0_data-maintenance-53" d="M246.5,341.6c-0.4,0-0.7-0.3-0.7-0.7c0-0.3,0.3-0.6,0.6-0.7c0,0,5.4-0.9,8.2-13.5c3-13.5,0.2-162.5-0.7-169.7&#10;&#9;&#9;c-0.8-6.3-12.9-6.4-13-6.4c-0.4,0-0.7-0.3-0.7-0.7c0-0.4,0.3-0.7,0.7-0.7c0.6,0,13.5,0.1,14.4,7.6c0.9,7.2,3.7,156.7,0.7,170.2&#10;&#9;&#9;C253,340.7,246.9,341.6,246.5,341.6L246.5,341.6z"/>
	<path class="st0_data-maintenance-53" d="M251.9,225.6c-0.1,0-0.3-0.1-0.4-0.2c-0.5-0.4-0.1-1,0.1-1.3c0.1-0.1,0.1-0.1,0.2-0.2l2.9-3.3&#10;&#9;&#9;c4.1-4.8,3.7-57.6,2.3-67.8c-0.9-6-2.6-8.1-3.9-8.8c-0.7-0.4-1.5-0.5-2.2-0.2c-0.4,0.2-0.8,0-0.9-0.4c-0.2-0.4,0-0.8,0.4-0.9l0,0&#10;&#9;&#9;c1.1-0.4,2.4-0.3,3.4,0.3c2.3,1.3,3.8,4.6,4.6,9.8c1.1,8,2.3,63.2-2.6,68.9c-1.6,1.9-2.5,2.9-3.1,3.5l0,0c0,0-0.1,0.2-0.2,0.2l0,0&#10;&#9;&#9;C252.2,225.5,252.1,225.6,251.9,225.6z"/>
	<path class="st0_data-maintenance-53" d="M252.2,279c-0.4,0-0.7-0.3-0.7-0.7c0-0.4,0.3-0.7,0.7-0.7c0.3,0,6.9-0.8,9.3-8.8c2.5-8.4,2.5-65.1,0-90.6&#10;&#9;&#9;c-0.6-6-2.3-9.8-4.9-11.1s-5.5,0.3-5.5,0.3c-0.3,0.2-0.8,0.1-1-0.3c-0.2-0.3-0.1-0.7,0.2-0.9c0.1-0.1,3.5-2.1,6.8-0.4&#10;&#9;&#9;c3.1,1.6,5,5.7,5.6,12.2c2.5,25.5,2.5,82.6,0,91.1c-2.6,8.9-10.4,9.8-10.5,9.8L252.2,279z"/>
	<path class="st0_data-maintenance-53" d="M449.5,374.3h-0.2c-0.8-0.2-77.3-17.9-114.2-11.3c-38.1,6.8-55.8,8.3-66.8-0.1c-10.3-7.8-18.9-3.7-19.2-3.5&#10;&#9;&#9;c-0.3,0.2-0.8,0-0.9-0.3c-0.2-0.3,0-0.7,0.3-0.9c0.4-0.2,9.7-4.7,20.7,3.7c10.5,8,28.8,6.5,65.7-0.1&#10;&#9;&#9;c37.2-6.7,114.1,11.1,114.8,11.3c0.4,0.1,0.6,0.5,0.5,0.8c0,0,0,0,0,0C450.1,374.1,449.8,374.3,449.5,374.3z"/>
</g>
<g id="Sign_data-maintenance-53">
	<rect x="301.8" y="263.2" class="st1_data-maintenance-53" width="15.8" height="122.9"/>
	<path class="st2_data-maintenance-53" d="M317.6,386.9h-15.8c-0.4,0-0.7-0.3-0.7-0.7v0V263.2c0-0.4,0.3-0.7,0.7-0.7h0h15.8c0.4,0,0.7,0.3,0.7,0.7v0&#10;&#9;&#9;v122.9C318.4,386.5,318,386.9,317.6,386.9z M302.5,385.5H317V264h-14.5L302.5,385.5z"/>
	<rect x="398.9" y="263.2" class="st1_data-maintenance-53" width="15.8" height="122.9"/>
	<path class="st2_data-maintenance-53" d="M414.7,386.9h-15.9c-0.4,0-0.7-0.3-0.7-0.7V263.2c0-0.4,0.3-0.7,0.7-0.7h15.9c0.4,0,0.7,0.3,0.7,0.7v122.9&#10;&#9;&#9;C415.4,386.5,415.1,386.9,414.7,386.9z M399.6,385.5H414V264h-14.4V385.5z"/>
	<rect x="286.4" y="272.5" class="st1_data-maintenance-53" width="140.6" height="42.2"/>
	<path class="st2_data-maintenance-53" d="M427,315.4H286.4c-0.4,0-0.7-0.3-0.7-0.7v0v-42.2c0-0.4,0.3-0.7,0.7-0.7h0H427c0.4,0,0.7,0.3,0.7,0.7v0v42.2&#10;&#9;&#9;C427.7,315.1,427.4,315.4,427,315.4z M287.1,314h139.2v-40.8H287.1V314z"/>
	<polygon class="st2_data-maintenance-53" points="337.2,314.7 315.6,314.7 289,272.5 310.5,272.5 &#9;"/>
	<path class="st2_data-maintenance-53" d="M337.2,315.4h-21.6c-0.3,0-0.5-0.1-0.6-0.4l-26.6-42.2c-0.1-0.2-0.1-0.5,0-0.7c0.1-0.2,0.4-0.4,0.6-0.4h21.6&#10;&#9;&#9;c0.2,0,0.5,0.1,0.6,0.3l26.6,42.2c0.1,0.2,0.1,0.5,0,0.7C337.7,315.2,337.4,315.4,337.2,315.4z M316,314h19.9l-25.8-40.8h-19.9&#10;&#9;&#9;L316,314z"/>
	<polygon class="st2_data-maintenance-53" points="380.8,314.7 359.2,314.7 332.6,272.5 354.1,272.5 &#9;"/>
	<path class="st2_data-maintenance-53" d="M380.8,315.4h-21.6c-0.2,0-0.5-0.1-0.6-0.3L332,272.9c-0.2-0.3-0.1-0.8,0.2-1c0.1-0.1,0.2-0.1,0.4-0.1h21.6&#10;&#9;&#9;c0.2,0,0.5,0.1,0.6,0.3l26.6,42.2c0.1,0.2,0.1,0.5,0,0.7C381.3,315.2,381,315.4,380.8,315.4z M359.6,314h19.9l-25.8-40.8h-19.9&#10;&#9;&#9;L359.6,314z"/>
	<polygon class="st2_data-maintenance-53" points="424.4,314.7 402.8,314.7 376.2,272.5 397.7,272.5 &#9;"/>
	<path class="st2_data-maintenance-53" d="M424.4,315.4h-21.6c-0.2,0-0.5-0.1-0.6-0.3l-26.6-42.2c-0.2-0.3-0.1-0.8,0.2-1c0.1-0.1,0.2-0.1,0.4-0.1h21.6&#10;&#9;&#9;c0.2,0,0.5,0.1,0.6,0.3l26.7,42.2c0.2,0.3,0.1,0.8-0.2,1C424.7,315.3,424.5,315.4,424.4,315.4L424.4,315.4z M403.2,314h19.9&#10;&#9;&#9;l-25.8-40.8h-19.9L403.2,314z"/>
	<rect x="286.4" y="331.5" class="st1_data-maintenance-53" width="138" height="13.6"/>
	<path class="st2_data-maintenance-53" d="M424.4,345.8h-138c-0.4,0-0.7-0.3-0.7-0.7v0v-13.6c0-0.4,0.3-0.7,0.7-0.7h0h138c0.4,0,0.7,0.3,0.7,0.7v0v13.6&#10;&#9;&#9;C425.1,345.5,424.8,345.8,424.4,345.8z M287.1,344.4h136.6v-12.2H287.1V344.4z"/>
</g>
<g id="Maintenance_Text_data-maintenance-53">
	<rect x="289" y="136.6" class="st1_data-maintenance-53" width="135.4" height="83"/>
	<path class="st0_data-maintenance-53" d="M424.4,220.3H289c-0.4,0-0.7-0.3-0.7-0.7c0,0,0,0,0,0v-83c0-0.4,0.3-0.7,0.7-0.7l0,0h135.4&#10;&#9;&#9;c0.4,0,0.7,0.3,0.7,0.7c0,0,0,0,0,0v83C425.1,220,424.8,220.3,424.4,220.3L424.4,220.3z M289.7,218.9h134v-81.6h-134V218.9z"/>
	<path class="st2_data-maintenance-53" d="M306.6,171.7h3.7l1.7,9.2l0,0l1.7-9.2h3.7v12.8h-2.5v-9.7h0l-1.9,9.7h-2.2l-1.9-9.7l0,0v9.7h-2.3L306.6,171.7z&#10;&#9;&#9;"/>
	<path class="st2_data-maintenance-53" d="M321.4,171.7h3.5l2.7,12.8H325l-0.5-2.5l0,0h-3l-0.5,2.5h-2.4L321.4,171.7z M324.2,180.3l-1.2-6.3h0l-1.1,6.3&#10;&#9;&#9;H324.2z"/>
	<path class="st2_data-maintenance-53" d="M328.9,171.7h2.6v12.8h-2.6V171.7z"/>
	<path class="st2_data-maintenance-53" d="M333.4,171.7h3.3l2.5,7.7l0,0v-7.7h2.3v12.8h-2.7l-3.1-9.4l0,0v9.4h-2.3L333.4,171.7z"/>
	<path class="st2_data-maintenance-53" d="M345.6,173.5h-2.7v-1.8h8.1v1.8h-2.7v11h-2.6V173.5z"/>
	<path class="st2_data-maintenance-53" d="M352.2,171.7h7.1v1.8h-4.5v3.4h3.6v1.8h-3.6v3.9h4.5v1.8h-7.1V171.7z"/>
	<path class="st2_data-maintenance-53" d="M360.8,171.7h3.3l2.5,7.7h0v-7.7h2.4v12.8h-2.7l-3.1-9.4l0,0v9.4h-2.3L360.8,171.7z"/>
	<path class="st2_data-maintenance-53" d="M372.9,171.7h3.5l2.7,12.8h-2.6l-0.5-2.5l0,0h-3l-0.5,2.5h-2.4L372.9,171.7z M375.8,180.3l-1.2-6.3h0l-1.1,6.3&#10;&#9;&#9;H375.8z"/>
	<path class="st2_data-maintenance-53" d="M380.4,171.7h3.3l2.5,7.7l0,0v-7.7h2.3v12.8h-2.7l-3.1-9.4h0v9.4h-2.3L380.4,171.7z"/>
	<path class="st2_data-maintenance-53" d="M391.4,183.9c-0.7-0.6-1-1.4-1-2.3v-6.9c0-0.9,0.3-1.8,1-2.3c0.8-0.6,1.8-0.9,2.9-0.8c1-0.1,2,0.2,2.9,0.8&#10;&#9;&#9;c0.7,0.6,1,1.4,1,2.3v1.3h-2.5v-1.5c0-0.8-0.4-1.2-1.3-1.2s-1.3,0.4-1.3,1.2v7.2c0,0.8,0.4,1.2,1.3,1.2s1.3-0.4,1.3-1.2v-2h2.5v1.8&#10;&#9;&#9;c0,0.9-0.3,1.8-1,2.3c-0.8,0.6-1.8,0.9-2.9,0.8C393.2,184.7,392.2,184.5,391.4,183.9z"/>
	<path class="st2_data-maintenance-53" d="M399.6,171.7h7.1v1.8h-4.5v3.4h3.6v1.8h-3.6v3.9h4.5v1.8h-7.1V171.7z"/>
</g>
<g id="Server_data-maintenance-53">
	<rect x="82.4" y="113.8" class="st1_data-maintenance-53" width="166.3" height="259.8"/>
	<path class="st2_data-maintenance-53" d="M248.8,374.3H82.4c-0.4,0-0.7-0.3-0.7-0.7l0,0V113.8c0-0.4,0.3-0.7,0.7-0.7h166.4c0.4,0,0.7,0.3,0.7,0.7v259.8&#10;&#9;&#9;C249.5,374,249.2,374.3,248.8,374.3z M83.1,372.9h165V114.5h-165L83.1,372.9z"/>
	<rect x="97.9" y="138.1" class="st1_data-maintenance-53" width="135.4" height="28.1"/>
	<path class="st2_data-maintenance-53" d="M233.3,166.9H97.9c-0.4,0-0.7-0.3-0.7-0.7v-28.1c0-0.4,0.3-0.7,0.7-0.7h135.4c0.4,0,0.7,0.3,0.7,0.7v28.1&#10;&#9;&#9;C234,166.5,233.7,166.9,233.3,166.9z M98.6,165.5h134v-26.7h-134V165.5z"/>
	<path class="st0_data-maintenance-53" d="M165.6,147.6h-3.5c-0.4,0-0.7-0.3-0.7-0.7c0-0.4,0.3-0.7,0.7-0.7h3.5c0.4,0,0.7,0.3,0.7,0.7&#10;&#9;&#9;C166.3,147.3,166,147.6,165.6,147.6z"/>
	<path class="st0_data-maintenance-53" d="M165.6,158h-3.5c-0.4,0-0.7-0.3-0.7-0.7c0-0.4,0.3-0.7,0.7-0.7h3.5c0.4,0,0.7,0.3,0.7,0.7&#10;&#9;&#9;C166.3,157.7,166,158,165.6,158z"/>
	<path class="st0_data-maintenance-53" d="M177,147.6h-3.5c-0.4,0-0.7-0.3-0.7-0.7c0-0.4,0.3-0.7,0.7-0.7c0,0,0,0,0,0h3.5c0.4,0,0.7,0.3,0.7,0.7&#10;&#9;&#9;C177.7,147.3,177.4,147.6,177,147.6z"/>
	<path class="st0_data-maintenance-53" d="M177,158h-3.5c-0.4,0-0.7-0.3-0.7-0.7c0-0.4,0.3-0.7,0.7-0.7h3.5c0.4,0,0.7,0.3,0.7,0.7&#10;&#9;&#9;C177.7,157.7,177.4,158,177,158z"/>
	<path class="st0_data-maintenance-53" d="M188.4,147.6h-3.5c-0.4,0-0.7-0.3-0.7-0.7c0-0.4,0.3-0.7,0.7-0.7h3.5c0.4,0,0.7,0.3,0.7,0.7&#10;&#9;&#9;C189.1,147.3,188.8,147.6,188.4,147.6z"/>
	<path class="st0_data-maintenance-53" d="M188.4,158h-3.5c-0.4,0-0.7-0.3-0.7-0.7c0-0.4,0.3-0.7,0.7-0.7h3.5c0.4,0,0.7,0.3,0.7,0.7&#10;&#9;&#9;C189.1,157.7,188.8,158,188.4,158z"/>
	<path class="st0_data-maintenance-53" d="M199.8,147.6h-3.5c-0.4,0-0.7-0.3-0.7-0.7c0-0.4,0.3-0.7,0.7-0.7c0,0,0,0,0,0h3.5c0.4,0,0.7,0.3,0.7,0.7&#10;&#9;&#9;C200.5,147.3,200.2,147.6,199.8,147.6z"/>
	<path class="st0_data-maintenance-53" d="M199.8,158h-3.5c-0.4,0-0.7-0.3-0.7-0.7c0-0.4,0.3-0.7,0.7-0.7c0,0,0,0,0,0h3.5c0.4,0,0.7,0.3,0.7,0.7&#10;&#9;&#9;C200.5,157.7,200.2,158,199.8,158z"/>
	<path class="st0_data-maintenance-53" d="M211.2,147.6h-3.5c-0.4,0-0.7-0.3-0.7-0.7c0-0.4,0.3-0.7,0.7-0.7c0,0,0,0,0,0h3.5c0.4,0,0.7,0.3,0.7,0.7&#10;&#9;&#9;C211.9,147.3,211.6,147.6,211.2,147.6z"/>
	<path class="st0_data-maintenance-53" d="M211.2,158h-3.5c-0.4,0-0.7-0.3-0.7-0.7c0-0.4,0.3-0.7,0.7-0.7c0,0,0,0,0,0h3.5c0.4,0,0.7,0.3,0.7,0.7&#10;&#9;&#9;C211.9,157.7,211.6,158,211.2,158z"/>
	<path class="st0_data-maintenance-53" d="M222.7,147.6h-3.5c-0.4,0-0.7-0.3-0.7-0.7c0-0.4,0.3-0.7,0.7-0.7h3.5c0.4,0,0.7,0.3,0.7,0.7&#10;&#9;&#9;C223.4,147.3,223,147.6,222.7,147.6z"/>
	<path class="st0_data-maintenance-53" d="M222.7,158h-3.5c-0.4,0-0.7-0.3-0.7-0.7c0-0.4,0.3-0.7,0.7-0.7h3.5c0.4,0,0.7,0.3,0.7,0.7&#10;&#9;&#9;C223.4,157.7,223,158,222.7,158z"/>
	<rect x="106.2" y="146.9" class="st3_data-maintenance-53 targetColor" width="42.5" height="10.3" style="fill: rgb(104, 253, 119);"/>
	<path class="st3_data-maintenance-53 targetColor" d="M148.7,158h-42.5c-0.4,0-0.7-0.3-0.7-0.7v-10.4c0-0.4,0.3-0.7,0.7-0.7h42.5c0.4,0,0.7,0.3,0.7,0.7v10.3&#10;&#9;&#9;C149.4,157.7,149.1,158,148.7,158C148.7,158,148.7,158,148.7,158z M106.9,156.6H148v-8.9h-41.1L106.9,156.6z" style="fill: rgb(104, 253, 119);"/>
	<circle class="st1_data-maintenance-53" cx="112.6" cy="152.2" r="2.7"/>
	<circle class="st2_data-maintenance-53" cx="120.8" cy="152.2" r="2.7"/>
	<rect x="97.9" y="173.1" class="st1_data-maintenance-53" width="135.4" height="28.1"/>
	<path class="st2_data-maintenance-53" d="M233.3,201.9H97.9c-0.4,0-0.7-0.3-0.7-0.7v-28.1c0-0.4,0.3-0.7,0.7-0.7h135.4c0.4,0,0.7,0.3,0.7,0.7v28.1&#10;&#9;&#9;C234,201.6,233.7,201.9,233.3,201.9z M98.6,200.5h134v-26.7h-134V200.5z"/>
	<path class="st0_data-maintenance-53" d="M165.6,182.7h-3.5c-0.4,0-0.7-0.3-0.7-0.7c0-0.4,0.3-0.7,0.7-0.7h3.5c0.4,0,0.7,0.3,0.7,0.7&#10;&#9;&#9;C166.3,182.4,166,182.7,165.6,182.7z"/>
	<path class="st0_data-maintenance-53" d="M165.6,193h-3.5c-0.4,0-0.7-0.3-0.7-0.7c0-0.4,0.3-0.7,0.7-0.7h3.5c0.4,0,0.7,0.3,0.7,0.7&#10;&#9;&#9;C166.3,192.7,166,193,165.6,193z"/>
	<path class="st0_data-maintenance-53" d="M177,182.7h-3.5c-0.4,0-0.7-0.3-0.7-0.7c0-0.4,0.3-0.7,0.7-0.7h3.5c0.4,0,0.7,0.3,0.7,0.7&#10;&#9;&#9;C177.7,182.4,177.4,182.7,177,182.7z"/>
	<path class="st0_data-maintenance-53" d="M177,193h-3.5c-0.4,0-0.7-0.3-0.7-0.7c0-0.4,0.3-0.7,0.7-0.7c0,0,0,0,0,0h3.5c0.4,0,0.7,0.3,0.7,0.7&#10;&#9;&#9;C177.7,192.7,177.4,193,177,193z"/>
	<path class="st0_data-maintenance-53" d="M188.4,182.7h-3.5c-0.4,0-0.7-0.3-0.7-0.7c0-0.4,0.3-0.7,0.7-0.7h3.5c0.4,0,0.7,0.3,0.7,0.7&#10;&#9;&#9;C189.1,182.4,188.8,182.7,188.4,182.7z"/>
	<path class="st0_data-maintenance-53" d="M188.4,193h-3.5c-0.4,0-0.7-0.3-0.7-0.7c0-0.4,0.3-0.7,0.7-0.7h3.5c0.4,0,0.7,0.3,0.7,0.7&#10;&#9;&#9;C189.1,192.7,188.8,193,188.4,193z"/>
	<path class="st0_data-maintenance-53" d="M199.8,182.7h-3.5c-0.4,0-0.7-0.3-0.7-0.7c0-0.4,0.3-0.7,0.7-0.7c0,0,0,0,0,0h3.5c0.4,0,0.7,0.3,0.7,0.7&#10;&#9;&#9;C200.5,182.4,200.2,182.7,199.8,182.7z"/>
	<path class="st0_data-maintenance-53" d="M199.8,193h-3.5c-0.4,0-0.7-0.3-0.7-0.7c0-0.4,0.3-0.7,0.7-0.7c0,0,0,0,0,0h3.5c0.4,0,0.7,0.3,0.7,0.7&#10;&#9;&#9;C200.5,192.7,200.2,193,199.8,193z"/>
	<path class="st0_data-maintenance-53" d="M211.2,182.7h-3.5c-0.4,0-0.7-0.3-0.7-0.7c0-0.4,0.3-0.7,0.7-0.7h3.5c0.4,0,0.7,0.3,0.7,0.7&#10;&#9;&#9;C211.9,182.4,211.6,182.7,211.2,182.7z"/>
	<path class="st0_data-maintenance-53" d="M211.2,193h-3.5c-0.4,0-0.7-0.3-0.7-0.7c0-0.4,0.3-0.7,0.7-0.7c0,0,0,0,0,0h3.5c0.4,0,0.7,0.3,0.7,0.7&#10;&#9;&#9;C211.9,192.7,211.6,193,211.2,193z"/>
	<path class="st0_data-maintenance-53" d="M222.7,182.7h-3.5c-0.4,0-0.7-0.3-0.7-0.7c0-0.4,0.3-0.7,0.7-0.7h3.5c0.4,0,0.7,0.3,0.7,0.7&#10;&#9;&#9;C223.4,182.4,223,182.7,222.7,182.7z"/>
	<path class="st0_data-maintenance-53" d="M222.7,193h-3.5c-0.4,0-0.7-0.3-0.7-0.7c0-0.4,0.3-0.7,0.7-0.7h3.5c0.4,0,0.7,0.3,0.7,0.7&#10;&#9;&#9;C223.4,192.7,223,193,222.7,193z"/>
	<rect x="106.2" y="182" class="st3_data-maintenance-53 targetColor" width="42.5" height="10.3" style="fill: rgb(104, 253, 119);"/>
	<path class="st3_data-maintenance-53 targetColor" d="M148.7,193h-42.5c-0.4,0-0.7-0.3-0.7-0.7V182c0-0.4,0.3-0.7,0.7-0.7h42.5c0.4,0,0.7,0.3,0.7,0.7v10.3&#10;&#9;&#9;C149.4,192.7,149.1,193,148.7,193z M106.9,191.6H148v-8.9h-41.1L106.9,191.6z" style="fill: rgb(104, 253, 119);"/>
	<circle class="st1_data-maintenance-53" cx="112.6" cy="187.3" r="2.7"/>
	<circle class="st2_data-maintenance-53" cx="120.8" cy="187.3" r="2.7"/>
	<rect x="97.9" y="208.1" class="st1_data-maintenance-53" width="135.4" height="28.1"/>
	<path class="st2_data-maintenance-53" d="M233.3,236.9H97.9c-0.4,0-0.7-0.3-0.7-0.7v-28.1c0-0.4,0.3-0.7,0.7-0.7h135.4c0.4,0,0.7,0.3,0.7,0.7v28.1&#10;&#9;&#9;C234,236.6,233.7,236.9,233.3,236.9z M98.6,235.5h134v-26.7h-134V235.5z"/>
	<path class="st0_data-maintenance-53" d="M165.6,217.7h-3.5c-0.4,0-0.7-0.3-0.7-0.7c0-0.4,0.3-0.7,0.7-0.7h3.5c0.4,0,0.7,0.3,0.7,0.7&#10;&#9;&#9;C166.3,217.4,166,217.7,165.6,217.7C165.6,217.7,165.6,217.7,165.6,217.7z"/>
	<path class="st0_data-maintenance-53" d="M165.6,228.1h-3.5c-0.4,0-0.7-0.3-0.7-0.7c0-0.4,0.3-0.7,0.7-0.7h3.5c0.4,0,0.7,0.3,0.7,0.7&#10;&#9;&#9;C166.3,227.7,166,228,165.6,228.1C165.6,228.1,165.6,228.1,165.6,228.1z"/>
	<path class="st0_data-maintenance-53" d="M177,217.7h-3.5c-0.4,0-0.7-0.3-0.7-0.7c0-0.4,0.3-0.7,0.7-0.7h3.5c0.4,0,0.7,0.3,0.7,0.7&#10;&#9;&#9;C177.7,217.4,177.4,217.7,177,217.7z"/>
	<path class="st0_data-maintenance-53" d="M177,228.1h-3.5c-0.4,0-0.7-0.3-0.7-0.7c0-0.4,0.3-0.7,0.7-0.7h3.5c0.4,0,0.7,0.3,0.7,0.7&#10;&#9;&#9;C177.7,227.7,177.4,228,177,228.1z"/>
	<path class="st0_data-maintenance-53" d="M188.4,217.7h-3.5c-0.4,0-0.7-0.3-0.7-0.7c0-0.4,0.3-0.7,0.7-0.7h3.5c0.4,0,0.7,0.3,0.7,0.7&#10;&#9;&#9;C189.1,217.4,188.8,217.7,188.4,217.7z"/>
	<path class="st0_data-maintenance-53" d="M188.4,228.1h-3.5c-0.4,0-0.7-0.3-0.7-0.7c0-0.4,0.3-0.7,0.7-0.7h3.5c0.4,0,0.7,0.3,0.7,0.7&#10;&#9;&#9;C189.1,227.7,188.8,228,188.4,228.1z"/>
	<path class="st0_data-maintenance-53" d="M199.8,217.7h-3.5c-0.4,0-0.7-0.3-0.7-0.7c0-0.4,0.3-0.7,0.7-0.7h3.5c0.4,0,0.7,0.3,0.7,0.7&#10;&#9;&#9;C200.5,217.4,200.2,217.7,199.8,217.7z"/>
	<path class="st0_data-maintenance-53" d="M199.8,228.1h-3.5c-0.4,0-0.7-0.3-0.7-0.7c0-0.4,0.3-0.7,0.7-0.7c0,0,0,0,0,0h3.5c0.4,0,0.7,0.3,0.7,0.7&#10;&#9;&#9;C200.5,227.7,200.2,228,199.8,228.1z"/>
	<path class="st0_data-maintenance-53" d="M211.2,217.7h-3.5c-0.4,0-0.7-0.3-0.7-0.7c0-0.4,0.3-0.7,0.7-0.7h3.5c0.4,0,0.7,0.3,0.7,0.7&#10;&#9;&#9;C211.9,217.4,211.6,217.7,211.2,217.7z"/>
	<path class="st0_data-maintenance-53" d="M211.2,228.1h-3.5c-0.4,0-0.7-0.3-0.7-0.7c0-0.4,0.3-0.7,0.7-0.7h3.5c0.4,0,0.7,0.3,0.7,0.7&#10;&#9;&#9;C211.9,227.7,211.6,228,211.2,228.1z"/>
	<path class="st0_data-maintenance-53" d="M222.7,217.7h-3.5c-0.4,0-0.7-0.3-0.7-0.7c0-0.4,0.3-0.7,0.7-0.7h3.5c0.4,0,0.7,0.3,0.7,0.7&#10;&#9;&#9;C223.4,217.4,223,217.7,222.7,217.7z"/>
	<path class="st0_data-maintenance-53" d="M222.7,228.1h-3.5c-0.4,0-0.7-0.3-0.7-0.7c0-0.4,0.3-0.7,0.7-0.7h3.5c0.4,0,0.7,0.3,0.7,0.7&#10;&#9;&#9;C223.4,227.7,223,228,222.7,228.1z"/>
	<rect x="106.2" y="217" class="st3_data-maintenance-53 targetColor" width="42.5" height="10.3" style="fill: rgb(104, 253, 119);"/>
	<path class="st3_data-maintenance-53 targetColor" d="M148.7,228.1h-42.5c-0.4,0-0.7-0.3-0.7-0.7V217c0-0.4,0.3-0.7,0.7-0.7h42.5c0.4,0,0.7,0.3,0.7,0.7v10.3&#10;&#9;&#9;C149.4,227.7,149.1,228,148.7,228.1C148.7,228,148.7,228.1,148.7,228.1z M106.9,226.7H148v-8.9h-41.1L106.9,226.7z" style="fill: rgb(104, 253, 119);"/>
	<circle class="st1_data-maintenance-53" cx="112.6" cy="222.3" r="2.7"/>
	<circle class="st2_data-maintenance-53" cx="120.8" cy="222.3" r="2.7"/>
	<rect x="97.9" y="243.2" class="st1_data-maintenance-53" width="135.4" height="28.1"/>
	<path class="st2_data-maintenance-53" d="M233.3,272H97.9c-0.4,0-0.7-0.3-0.7-0.7l0,0v-28.1c0-0.4,0.3-0.7,0.7-0.7h135.4c0.4,0,0.7,0.3,0.7,0.7v28.1&#10;&#9;&#9;C234,271.6,233.7,272,233.3,272C233.3,272,233.3,272,233.3,272z M98.6,270.6h134v-26.7h-134V270.6z"/>
	<path class="st0_data-maintenance-53" d="M165.6,252.8h-3.5c-0.4,0-0.7-0.3-0.7-0.7c0-0.4,0.3-0.7,0.7-0.7h3.5c0.4,0,0.7,0.3,0.7,0.7&#10;&#9;&#9;C166.3,252.4,166,252.7,165.6,252.8C165.6,252.8,165.6,252.8,165.6,252.8z"/>
	<path class="st0_data-maintenance-53" d="M165.6,263.1h-3.5c-0.4,0-0.7-0.3-0.7-0.7c0-0.4,0.3-0.7,0.7-0.7h3.5c0.4,0,0.7,0.3,0.7,0.7&#10;&#9;&#9;C166.3,262.8,166,263.1,165.6,263.1z"/>
	<path class="st0_data-maintenance-53" d="M177,252.8h-3.5c-0.4,0-0.7-0.3-0.7-0.7c0-0.4,0.3-0.7,0.7-0.7h3.5c0.4,0,0.7,0.3,0.7,0.7&#10;&#9;&#9;C177.7,252.4,177.4,252.7,177,252.8z"/>
	<path class="st0_data-maintenance-53" d="M177,263.1h-3.5c-0.4,0-0.7-0.3-0.7-0.7c0-0.4,0.3-0.7,0.7-0.7h3.5c0.4,0,0.7,0.3,0.7,0.7&#10;&#9;&#9;C177.7,262.8,177.4,263.1,177,263.1z"/>
	<path class="st0_data-maintenance-53" d="M188.4,252.8h-3.5c-0.4,0-0.7-0.3-0.7-0.7c0-0.4,0.3-0.7,0.7-0.7h3.5c0.4,0,0.7,0.3,0.7,0.7&#10;&#9;&#9;C189.1,252.4,188.8,252.7,188.4,252.8z"/>
	<path class="st0_data-maintenance-53" d="M188.4,263.1h-3.5c-0.4,0-0.7-0.3-0.7-0.7c0-0.4,0.3-0.7,0.7-0.7h3.5c0.4,0,0.7,0.3,0.7,0.7&#10;&#9;&#9;C189.1,262.8,188.8,263.1,188.4,263.1z"/>
	<path class="st0_data-maintenance-53" d="M199.8,252.8h-3.5c-0.4,0-0.7-0.3-0.7-0.7c0-0.4,0.3-0.7,0.7-0.7c0,0,0,0,0,0h3.5c0.4,0,0.7,0.3,0.7,0.7&#10;&#9;&#9;C200.5,252.4,200.2,252.7,199.8,252.8C199.8,252.8,199.8,252.8,199.8,252.8z"/>
	<path class="st0_data-maintenance-53" d="M199.8,263.1h-3.5c-0.4,0-0.7-0.3-0.7-0.7c0-0.4,0.3-0.7,0.7-0.7c0,0,0,0,0,0h3.5c0.4,0,0.7,0.3,0.7,0.7&#10;&#9;&#9;C200.5,262.8,200.2,263.1,199.8,263.1z"/>
	<path class="st0_data-maintenance-53" d="M211.2,252.8h-3.5c-0.4,0-0.7-0.3-0.7-0.7c0-0.4,0.3-0.7,0.7-0.7c0,0,0,0,0,0h3.5c0.4,0,0.7,0.3,0.7,0.7&#10;&#9;&#9;C212,252.4,211.6,252.7,211.2,252.8C211.3,252.8,211.3,252.8,211.2,252.8z"/>
	<path class="st0_data-maintenance-53" d="M211.2,263.1h-3.5c-0.4,0-0.7-0.3-0.7-0.7c0-0.4,0.3-0.7,0.7-0.7c0,0,0,0,0,0h3.5c0.4,0,0.7,0.3,0.7,0.7&#10;&#9;&#9;C211.9,262.8,211.6,263.1,211.2,263.1z"/>
	<path class="st0_data-maintenance-53" d="M222.7,252.8h-3.5c-0.4,0-0.7-0.3-0.7-0.7c0-0.4,0.3-0.7,0.7-0.7h3.5c0.4,0,0.7,0.3,0.7,0.7&#10;&#9;&#9;C223.4,252.4,223.1,252.7,222.7,252.8C222.7,252.8,222.7,252.8,222.7,252.8z"/>
	<path class="st0_data-maintenance-53" d="M222.7,263.1h-3.5c-0.4,0-0.7-0.3-0.7-0.7c0-0.4,0.3-0.7,0.7-0.7h3.5c0.4,0,0.7,0.3,0.7,0.7&#10;&#9;&#9;C223.4,262.8,223,263.1,222.7,263.1z"/>
	<rect x="106.2" y="252.1" class="st3_data-maintenance-53 targetColor" width="42.5" height="10.3" style="fill: rgb(104, 253, 119);"/>
	<path class="st3_data-maintenance-53 targetColor" d="M148.7,263.1h-42.5c-0.4,0-0.7-0.3-0.7-0.7l0,0v-10.3c0-0.4,0.3-0.7,0.7-0.7h42.5c0.4,0,0.7,0.3,0.7,0.7v10.3&#10;&#9;&#9;C149.4,262.8,149.1,263.1,148.7,263.1z M106.9,261.7H148v-8.9h-41.1L106.9,261.7z" style="fill: rgb(104, 253, 119);"/>
	<circle class="st1_data-maintenance-53" cx="112.6" cy="257.3" r="2.7"/>
	<circle class="st2_data-maintenance-53" cx="120.8" cy="257.3" r="2.7"/>
	<rect x="97.9" y="278.2" class="st1_data-maintenance-53" width="135.4" height="28.1"/>
	<path class="st2_data-maintenance-53" d="M233.3,307H97.9c-0.4,0-0.7-0.3-0.7-0.7l0,0v-28.1c0-0.4,0.3-0.7,0.7-0.7h0h135.4c0.4,0,0.7,0.3,0.7,0.7l0,0&#10;&#9;&#9;v28.1C234,306.7,233.7,307,233.3,307C233.3,307,233.3,307,233.3,307z M98.6,305.6h134v-26.7h-134V305.6z"/>
	<path class="st0_data-maintenance-53" d="M165.6,287.8h-3.5c-0.4,0-0.7-0.3-0.7-0.7c0-0.4,0.3-0.7,0.7-0.7h3.5c0.4,0,0.7,0.3,0.7,0.7&#10;&#9;&#9;C166.3,287.5,166,287.8,165.6,287.8C165.6,287.8,165.6,287.8,165.6,287.8z"/>
	<path class="st0_data-maintenance-53" d="M165.6,298.1h-3.5c-0.4,0-0.7-0.3-0.7-0.7c0-0.4,0.3-0.7,0.7-0.7h3.5c0.4,0,0.7,0.3,0.7,0.7&#10;&#9;&#9;C166.3,297.8,166,298.1,165.6,298.1C165.6,298.1,165.6,298.1,165.6,298.1z"/>
	<path class="st0_data-maintenance-53" d="M177,287.8h-3.5c-0.4,0-0.7-0.3-0.7-0.7c0-0.4,0.3-0.7,0.7-0.7c0,0,0,0,0,0h3.5c0.4,0,0.7,0.3,0.7,0.7&#10;&#9;&#9;C177.7,287.5,177.4,287.8,177,287.8z"/>
	<path class="st0_data-maintenance-53" d="M177,298.1h-3.5c-0.4,0-0.7-0.3-0.7-0.7c0-0.4,0.3-0.7,0.7-0.7c0,0,0,0,0,0h3.5c0.4,0,0.7,0.3,0.7,0.7&#10;&#9;&#9;C177.7,297.8,177.4,298.1,177,298.1z"/>
	<path class="st0_data-maintenance-53" d="M188.4,287.8h-3.5c-0.4,0-0.7-0.3-0.7-0.7c0-0.4,0.3-0.7,0.7-0.7c0,0,0,0,0,0h3.5c0.4,0,0.7,0.3,0.7,0.7&#10;&#9;&#9;C189.1,287.5,188.8,287.8,188.4,287.8z"/>
	<path class="st0_data-maintenance-53" d="M188.4,298.1h-3.5c-0.4,0-0.7-0.3-0.7-0.7c0-0.4,0.3-0.7,0.7-0.7c0,0,0,0,0,0h3.5c0.4,0,0.7,0.3,0.7,0.7&#10;&#9;&#9;C189.1,297.8,188.8,298.1,188.4,298.1z"/>
	<path class="st0_data-maintenance-53" d="M199.8,287.8h-3.5c-0.4,0-0.7-0.3-0.7-0.7c0-0.4,0.3-0.7,0.7-0.7c0,0,0,0,0,0h3.5c0.4,0,0.7,0.3,0.7,0.7&#10;&#9;&#9;C200.5,287.5,200.2,287.8,199.8,287.8C199.8,287.8,199.8,287.8,199.8,287.8z"/>
	<path class="st0_data-maintenance-53" d="M199.8,298.1h-3.5c-0.4,0-0.7-0.3-0.7-0.7c0-0.4,0.3-0.7,0.7-0.7c0,0,0,0,0,0h3.5c0.4,0,0.7,0.3,0.7,0.7&#10;&#9;&#9;C200.5,297.8,200.2,298.1,199.8,298.1C199.8,298.1,199.8,298.1,199.8,298.1z"/>
	<path class="st0_data-maintenance-53" d="M211.2,287.8h-3.5c-0.4,0-0.7-0.3-0.7-0.7c0-0.4,0.3-0.7,0.7-0.7c0,0,0,0,0,0h3.5c0.4,0,0.7,0.3,0.7,0.7&#10;&#9;&#9;C212,287.5,211.6,287.8,211.2,287.8C211.3,287.8,211.3,287.8,211.2,287.8z"/>
	<path class="st0_data-maintenance-53" d="M211.2,298.1h-3.5c-0.4,0-0.7-0.3-0.7-0.7c0-0.4,0.3-0.7,0.7-0.7c0,0,0,0,0,0h3.5c0.4,0,0.7,0.3,0.7,0.7&#10;&#9;&#9;C212,297.8,211.6,298.1,211.2,298.1C211.3,298.1,211.3,298.1,211.2,298.1z"/>
	<path class="st0_data-maintenance-53" d="M222.7,287.8h-3.5c-0.4,0-0.7-0.3-0.7-0.7c0-0.4,0.3-0.7,0.7-0.7c0,0,0,0,0,0h3.5c0.4,0,0.7,0.3,0.7,0.7&#10;&#9;&#9;C223.4,287.5,223,287.8,222.7,287.8z"/>
	<path class="st0_data-maintenance-53" d="M222.7,298.1h-3.5c-0.4,0-0.7-0.3-0.7-0.7c0-0.4,0.3-0.7,0.7-0.7c0,0,0,0,0,0h3.5c0.4,0,0.7,0.3,0.7,0.7&#10;&#9;&#9;C223.4,297.8,223.1,298.1,222.7,298.1C222.7,298.1,222.7,298.1,222.7,298.1z"/>
	<rect x="106.2" y="287.1" class="st3_data-maintenance-53 targetColor" width="42.5" height="10.3" style="fill: rgb(104, 253, 119);"/>
	<path class="st3_data-maintenance-53 targetColor" d="M148.7,298.1h-42.5c-0.4,0-0.7-0.3-0.7-0.7l0,0v-10.3c0-0.4,0.3-0.7,0.7-0.7h0h42.5c0.4,0,0.7,0.3,0.7,0.7l0,0&#10;&#9;&#9;v10.3C149.4,297.8,149.1,298.1,148.7,298.1C148.7,298.1,148.7,298.1,148.7,298.1z M106.9,296.7H148v-8.9h-41.1L106.9,296.7z" style="fill: rgb(104, 253, 119);"/>
	<circle class="st1_data-maintenance-53" cx="112.6" cy="292.4" r="2.7"/>
	<circle class="st2_data-maintenance-53" cx="120.8" cy="292.4" r="2.7"/>
	<rect x="97.9" y="313.2" class="st1_data-maintenance-53" width="135.4" height="28.1"/>
	<path class="st2_data-maintenance-53" d="M233.3,342H97.9c-0.4,0-0.7-0.3-0.7-0.7v-28.1c0-0.4,0.3-0.7,0.7-0.7h0h135.4c0.4,0,0.7,0.3,0.7,0.7l0,0v28.1&#10;&#9;&#9;C234,341.7,233.6,342,233.3,342z M98.6,340.6h134v-26.7h-134V340.6z"/>
	<path class="st0_data-maintenance-53" d="M165.6,322.8h-3.5c-0.4,0-0.7-0.3-0.7-0.7c0-0.4,0.3-0.7,0.7-0.7h3.5c0.4,0,0.7,0.3,0.7,0.7&#10;&#9;&#9;C166.3,322.5,166,322.8,165.6,322.8z"/>
	<path class="st0_data-maintenance-53" d="M165.6,333.1h-3.5c-0.4,0-0.7-0.3-0.7-0.7c0-0.4,0.3-0.7,0.7-0.7h3.5c0.4,0,0.7,0.3,0.7,0.7&#10;&#9;&#9;C166.3,332.8,166,333.1,165.6,333.1C165.6,333.1,165.6,333.1,165.6,333.1z"/>
	<path class="st0_data-maintenance-53" d="M177,322.8h-3.5c-0.4,0-0.7-0.3-0.7-0.7c0-0.4,0.3-0.7,0.7-0.7h3.5c0.4,0,0.7,0.3,0.7,0.7&#10;&#9;&#9;C177.7,322.5,177.4,322.8,177,322.8z"/>
	<path class="st0_data-maintenance-53" d="M177,333.1h-3.5c-0.4,0-0.7-0.3-0.7-0.7c0-0.4,0.3-0.7,0.7-0.7c0,0,0,0,0,0h3.5c0.4,0,0.7,0.3,0.7,0.7&#10;&#9;&#9;C177.7,332.8,177.4,333.1,177,333.1z"/>
	<path class="st0_data-maintenance-53" d="M188.4,322.8h-3.5c-0.4,0-0.7-0.3-0.7-0.7c0-0.4,0.3-0.7,0.7-0.7h3.5c0.4,0,0.7,0.3,0.7,0.7&#10;&#9;&#9;C189.1,322.5,188.8,322.8,188.4,322.8z"/>
	<path class="st0_data-maintenance-53" d="M188.4,333.1h-3.5c-0.4,0-0.7-0.3-0.7-0.7c0-0.4,0.3-0.7,0.7-0.7c0,0,0,0,0,0h3.5c0.4,0,0.7,0.3,0.7,0.7&#10;&#9;&#9;C189.1,332.8,188.8,333.1,188.4,333.1C188.4,333.1,188.4,333.1,188.4,333.1z"/>
	<path class="st0_data-maintenance-53" d="M199.8,322.8h-3.5c-0.4,0-0.7-0.3-0.7-0.7c0-0.4,0.3-0.7,0.7-0.7h3.5c0.4,0,0.7,0.3,0.7,0.7&#10;&#9;&#9;C200.5,322.5,200.2,322.8,199.8,322.8z"/>
	<path class="st0_data-maintenance-53" d="M199.8,333.1h-3.5c-0.4,0-0.7-0.3-0.7-0.7c0-0.4,0.3-0.7,0.7-0.7h3.5c0.4,0,0.7,0.3,0.7,0.7&#10;&#9;&#9;C200.5,332.8,200.2,333.1,199.8,333.1z"/>
	<path class="st0_data-maintenance-53" d="M211.2,322.8h-3.5c-0.4,0-0.7-0.3-0.7-0.7c0-0.4,0.3-0.7,0.7-0.7h3.5c0.4,0,0.7,0.3,0.7,0.7&#10;&#9;&#9;C211.9,322.5,211.6,322.8,211.2,322.8z"/>
	<path class="st0_data-maintenance-53" d="M211.2,333.1h-3.5c-0.4,0-0.7-0.3-0.7-0.7c0-0.4,0.3-0.7,0.7-0.7h3.5c0.4,0,0.7,0.3,0.7,0.7&#10;&#9;&#9;C212,332.8,211.6,333.1,211.2,333.1C211.3,333.1,211.3,333.1,211.2,333.1z"/>
	<path class="st0_data-maintenance-53" d="M222.7,322.8h-3.5c-0.4,0-0.7-0.3-0.7-0.7c0-0.4,0.3-0.7,0.7-0.7h3.5c0.4,0,0.7,0.3,0.7,0.7&#10;&#9;&#9;C223.4,322.5,223.1,322.8,222.7,322.8C222.7,322.8,222.7,322.8,222.7,322.8z"/>
	<path class="st0_data-maintenance-53" d="M222.7,333.1h-3.5c-0.4,0-0.7-0.3-0.7-0.7c0-0.4,0.3-0.7,0.7-0.7c0,0,0,0,0,0h3.5c0.4,0,0.7,0.3,0.7,0.7&#10;&#9;&#9;C223.4,332.8,223.1,333.1,222.7,333.1C222.7,333.1,222.7,333.1,222.7,333.1z"/>
	<rect x="106.2" y="322.1" class="st3_data-maintenance-53 targetColor" width="42.5" height="10.3" style="fill: rgb(104, 253, 119);"/>
	<path class="st3_data-maintenance-53 targetColor" d="M148.7,333.1h-42.5c-0.4,0-0.7-0.3-0.7-0.7l0,0v-10.3c0-0.4,0.3-0.7,0.7-0.7h0h42.5c0.4,0,0.7,0.3,0.7,0.7l0,0&#10;&#9;&#9;v10.3C149.4,332.8,149.1,333.1,148.7,333.1C148.7,333.1,148.7,333.1,148.7,333.1z M106.9,331.8H148v-8.9h-41.1L106.9,331.8z" style="fill: rgb(104, 253, 119);"/>
	<circle class="st1_data-maintenance-53" cx="112.6" cy="327.4" r="2.7"/>
	<circle class="st2_data-maintenance-53" cx="120.8" cy="327.4" r="2.7"/>
	<rect x="90.9" y="373.6" class="st2_data-maintenance-53" width="149.3" height="5.7"/>
	<path class="st2_data-maintenance-53" d="M240.2,380H91c-0.4,0-0.7-0.3-0.7-0.7c0,0,0,0,0,0v-5.7c0-0.4,0.3-0.7,0.7-0.7h0h149.2c0.4,0,0.7,0.3,0.7,0.7&#10;&#9;&#9;l0,0v5.7C240.9,379.7,240.6,380,240.2,380z M91.6,378.6h147.9v-4.3H91.6V378.6z"/>
</g>
</svg>